<svg xmlns="http://www.w3.org/2000/svg" viewBox="0 0 335.84 113.32" width="336" height="113"><title>Aptive</title><polygon points="24.00,89.32 58.29,24.00 92.59,89.32 77.89,89.32 58.29,51.76 38.70,89.32" fill="#FFFFFF"/><circle cx="58.29" cy="74.62" r="6.86" fill="#2BD47D"/><path d="M148.66872550143265 79.66 144.97818108882518 67.92934097421204H128.63434154727793L125.00969971346703 79.66H116.17875415472777L131.59995759312318 33.660000000000004H142.40798051575928L157.69737879656157 79.66ZM136.9380664756447 41.568309455587396H136.60855358166188L130.7432240687679 60.48234957020057H142.86929856733522ZM163.95812378223494 45.25885386819484H172.3936538681948V50.92647564469914H172.65726418338105Q173.57990028653293 47.96085959885387 176.1501008595988 46.21444126074499Q178.7203014326647 44.4680229226361 182.14723553008594 44.4680229226361Q188.7374934097421 44.4680229226361 192.19737879656157 49.11415472779369Q195.65726418338105 53.760286532951284 195.65726418338105 62.393524355300855Q195.65726418338105 71.092664756447 192.19737879656157 75.77174785100286Q188.7374934097421 80.45083094555874 182.14723553008594 80.45083094555874Q178.7203014326647 80.45083094555874 176.1830521489971 78.67146131805157Q173.64580286532947 76.8920916905444 172.65726418338105 73.92647564469914H172.3936538681948V92.84051575931231H163.95812378223494ZM179.4452297994269 73.46515759312321Q182.740358739255 73.46515759312321 184.7833386819484 71.29037249283667Q186.8263186246418 69.11558739255014 186.8263186246418 65.42504297994269V59.49381088825215Q186.8263186246418 55.8032664756447 184.7833386819484 53.59553008595988Q182.740358739255 51.38779369627507 179.4452297994269 51.38779369627507Q176.41371117478508 51.38779369627507 174.40368252148994 52.903553008595985Q172.3936538681948 54.4193123209169 172.3936538681948 56.923610315186245V67.86343839541547Q172.3936538681948 70.5654441260745 174.40368252148994 72.01530085959885Q176.41371117478508 73.46515759312321 179.4452297994269 73.46515759312321ZM213.84637593123207 79.66Q209.49680573065902 79.66 207.22316676217764 77.38636103151862Q204.94952779369626 75.11272206303724 204.94952779369626 70.8949570200573V51.980916905444126H199.87502922636102V45.25885386819484H202.5111323782235Q204.42230716332378 45.25885386819484 205.11428424068765 44.36916905444126Q205.80626131805155 43.47948424068768 205.80626131805155 41.70011461318052V35.83478510028653H213.38505787965613V45.25885386819484H220.43663381088822V51.980916905444126H213.38505787965613V72.93793696275071H219.90941318051574V79.66ZM231.9695851002865 40.25025787965616Q229.33348194842404 40.25025787965616 228.18018681948422 39.06401146131805Q227.02689169054437 37.877765042979945 227.02689169054437 36.03249283667622V34.714441260744984Q227.02689169054437 32.869169054441265 228.18018681948422 31.682922636103154Q229.33348194842404 30.496676217765042 231.9695851002865 30.496676217765042Q234.53978567335238 30.496676217765042 235.7260320916905 31.682922636103154Q236.9122785100286 32.869169054441265 236.9122785100286 34.714441260744984V36.03249283667622Q236.9122785100286 37.877765042979945 235.7260320916905 39.06401146131805Q234.53978567335238 40.25025787965616 231.9695851002865 40.25025787965616ZM227.75182005730656 45.25885386819484H236.18735014326643V79.66H227.75182005730656ZM253.3220206303725 79.66 241.85497191977078 45.25885386819484H250.15869684813754L254.9695851002865 60.08693409742121L258.33061661891117 72.34481375358166H258.7919346704871L262.15296618911174 60.08693409742121L266.83204928366763 45.25885386819484H274.8721638968481L263.33921260744984 79.66ZM293.85210659025785 80.45083094555874Q290.0297570200573 80.45083094555874 287.03118968481374 79.16573065902578Q284.03262234957015 77.88063037249283 281.95669111747844 75.5410888252149Q279.88075988538674 73.20154727793695 278.7604160458452 69.8734670487106Q277.64007220630367 66.54538681948424 277.64007220630367 62.393524355300855Q277.64007220630367 58.30756446991404 278.7274647564469 55.01243553008596Q279.8148573065902 51.71730659025788 281.85783724928365 49.377765042979945Q283.900817191977 47.038223495702006 286.8664332378223 45.753123209169054Q289.8320492836676 44.4680229226361 293.5884962750716 44.4680229226361Q297.60855358166185 44.4680229226361 300.5741696275071 45.8519770773639Q303.53978567335236 47.23593123209169 305.45096045845264 49.6084240687679Q307.3621352435529 51.980916905444126 308.3177226361031 55.1112893982808Q309.2733100286532 58.241661891117474 309.2733100286532 61.800401146131804V64.5683094555874H286.40511518624635V65.42504297994269Q286.40511518624635 69.1814899713467 288.51399770773634 71.45512893982809Q290.6228802292263 73.72876790830945 294.7747426934097 73.72876790830945Q297.93806647564463 73.72876790830945 299.94809512893977 72.41071633237823Q301.9581237822349 71.092664756447 303.53978567335236 69.04968481375357L308.0870636103151 74.12418338108883Q305.9781810888252 77.08979942693409 302.320587965616 78.77031518624642Q298.6629948424068 80.45083094555874 293.85210659025785 80.45083094555874ZM293.7203014326647 50.79467048710602Q290.35926991404006 50.79467048710602 288.3821925501432 53.03535816618911Q286.40511518624635 55.27604584527221 286.40511518624635 58.83478510028653V59.36200573065902H300.50826704871054V58.76888252148997Q300.50826704871054 55.21014326647564 298.76184871060167 53.00240687679083Q297.0154303724928 50.79467048710602 293.7203014326647 50.79467048710602Z" fill="#FFFFFF"/></svg>
